<?xml version="1.0" encoding="utf-8"?>
<!-- Generator: Adobe Illustrator 23.0.1, SVG Export Plug-In . SVG Version: 6.00 Build 0)  -->
<svg version="1.1"
	 id="Layer_1" xmlns:cc="http://creativecommons.org/ns#" xmlns:dc="http://purl.org/dc/elements/1.1/" xmlns:rdf="http://www.w3.org/1999/02/22-rdf-syntax-ns#"
	 xmlns="http://www.w3.org/2000/svg" xmlns:xlink="http://www.w3.org/1999/xlink" x="0px" y="0px" width="800px" height="800px"
	 viewBox="0 0 800 800" style="enable-background:new 0 0 800 800;" xml:space="preserve">
<style type="text/css">
	.st0{fill:#3498DB;}
	.st1{fill:#2980B9;}
	.st2{fill:#ECF0F1;}
	.st3{fill:#BDC3C7;}
</style>
<g transform="translate(0 -1028.4)">
	<path class="st0" d="M148.5,1105c-39.7,0-71.9,32.3-71.9,71.9v503c0,39.5,32.2,71.9,71.9,71.9h467.1h35.9
		c39.7,0,71.9-32.3,71.9-71.9v-467.1L615.6,1105H148.5z"/>
	<path class="st1" d="M220.3,1105v35.9v179.7c0,18,16.1,35.9,35.9,35.9h287.5c19.8,0,35.9-18,35.9-35.9v-179.7V1105H220.3z"/>
	<path class="st2" d="M220.3,1105v179.7c0,19.8,16.1,35.9,35.9,35.9h287.5c19.8,0,35.9-16.1,35.9-35.9V1105H220.3z"/>
	<path class="st2" d="M184.4,1428.4c-19.8,0-35.9,14.4-35.9,35.9v107.8v71.9v107.8h143.7h215.6h143.7V1644v-71.9v-107.8
		c0-21.6-16.1-35.9-35.9-35.9H471.9H328.1H184.4z"/>
	<g>
		<rect x="148.5" y="1715.9" class="st3" width="503" height="35.9"/>
		<rect x="220.3" y="1500.3" class="st3" width="359.3" height="35.9"/>
		<rect x="220.3" y="1572.1" class="st3" width="359.3" height="35.9"/>
	</g>
	<rect x="435.9" y="1140.9" class="st0" width="107.8" height="143.7"/>
	<rect x="435.9" y="1140.9" class="st1" width="107.8" height="35.9"/>
</g>
</svg>
